<svg xmlns="http://www.w3.org/2000/svg" viewBox="0 0 1536 2752" width="1536" height="2752">
  <defs>
    <linearGradient id="treeGradient" x1="0%" y1="100%" x2="0%" y2="0%">
      <stop offset="0%" stop-color="#1a5c32"/>
      <stop offset="40%" stop-color="#2d8f4e"/>
      <stop offset="70%" stop-color="#3eb55f"/>
      <stop offset="100%" stop-color="#6cbe4f"/>
    </linearGradient>
    <linearGradient id="blueAccent" x1="0%" y1="100%" x2="0%" y2="0%">
      <stop offset="0%" stop-color="#0d3d5c"/>
      <stop offset="50%" stop-color="#2072b8"/>
      <stop offset="100%" stop-color="#3498db"/>
    </linearGradient>
    <clipPath id="treeClip">
      <rect id="treeReveal" x="0" y="100%" width="100%" height="0%"/>
    </clipPath>
  </defs>
  
  <g fill="#000000">
    <path d="M1698 27490 c-19 -20 -28 -41 -28 -63 0 -38 11 -54 60 -89 33 -23 53 -32 155 -71 63 -24 67 -26 117 -55 26 -15 65 -37 87 -49 54 -30 84 -55 166 -139 140 -143 216 -312 241 -537 13 -117 12 -146 -6 -360 -11 -127 -20 -235 -20 -239 0 -16 -23 -7 -68 25 -26 17 -49 34 -52 37 -3 3 -33 18 -67 32 -122 53 -258 63 -456 35 -204 -29 -339 -20 -447 31 -127 59 -200 134 -247 255 -24 61 -28 86 -27 162 1 112 26 178 91 235 100 87 254 58 305 -58 18 -39 19 -58 14 -129 -7 -80 -6 -84 19 -109 21 -21 31 -24 58 -18 47 10 92 49 106 92 22 64 10 196 -22 262 -29 60 -120 160 -145 160 -5 0 -15 6 -21 13 -17 21 -118 42 -196 41 -116 0 -217 -47 -301 -137 -95 -102 -153 -271 -139 -405 18 -173 90 -328 205 -443 73 -73 90 -84 245 -154 36 -17 110 -39 186 -55 55 -12 280 -9 442 6 130 12 251 -30 328 -114 78 -83 109 -173 174 -496 31 -152 61 -245 115 -355 22 -45 40 -84 40 -86 0 -10 96 -160 134 -210 61 -81 206 -233 276 -290 71 -57 229 -167 300 -208 67 -39 162 -87 171 -87 5 0 60 -25 124 -55 63 -30 123 -55 133 -55 10 0 22 -4 28 -8 8 -8 158 -58 269 -89 28 -8 64 -18 81 -23 17 -6 40 -10 52 -10 12 0 39 -6 59 -14 36 -13 95 -28 173 -47 19 -4 64 -15 100 -24 36 -8 81 -19 100 -24 19 -5 62 -16 95 -26 33 -9 98 -25 145 -36 47 -11 128 -34 180 -50 100 -32 112 -36 173 -63 21 -9 43 -16 49 -16 7 0 48 -17 93 -39 44 -21 98 -46 120 -55 45 -19 47 -20 130 -66 201 -111 285 -174 468 -350 185 -177 353 -432 475 -720 114 -269 218 -650 261 -950 34 -238 39 -289 101 -945 17 -176 35 -358 40 -405 38 -345 84 -1055 76 -1185 -19 -341 -89 -654 -217 -975 -66 -167 -80 -195 -162 -345 -106 -192 -217 -349 -288 -410 -47 -40 -145 -110 -179 -129 -66 -37 -133 -66 -149 -66 -6 0 -19 -4 -29 -9 -77 -42 -412 -91 -526 -77 l-56 7 -50 102 c-94 189 -242 383 -355 465 -82 60 -116 82 -124 82 -5 0 -11 3 -13 8 -1 4 -21 15 -43 26 -22 10 -52 25 -67 32 -14 8 -35 14 -45 14 -11 0 -23 3 -27 7 -3 4 -37 15 -74 24 -80 21 -372 26 -449 8 -140 -34 -256 -66 -300 -85 -17 -8 -34 -14 -38 -14 -3 0 -32 -12 -63 -26 -31 -14 -73 -33 -92 -41 -94 -41 -310 -151 -345 -176 -45 -32 -75 -79 -75 -119 0 -39 31 -115 90 -222 110 -198 288 -399 445 -501 172 -111 340 -168 530 -179 263 -15 559 61 800 205 28 16 59 34 70 39 11 6 36 20 55 32 92 56 149 78 202 78 60 0 299 26 372 41 27 5 51 7 54 4 11 -11 -20 -57 -49 -73 -16 -9 -65 -42 -108 -72 -87 -63 -110 -77 -131 -87 -8 -4 -31 -16 -50 -28 -74 -46 -202 -113 -305 -159 -97 -44 -116 -53 -190 -81 -38 -15 -85 -33 -103 -41 -18 -8 -41 -14 -50 -14 -10 0 -22 -4 -27 -9 -6 -5 -50 -19 -100 -30 -49 -12 -106 -25 -125 -30 -54 -14 -200 -31 -266 -31 -107 1 -327 33 -509 76 -38 9 -90 20 -115 24 -25 4 -70 12 -100 18 -398 76 -692 21 -954 -181 -37 -28 -70 -59 -226 -210 -214 -208 -338 -272 -531 -272 -53 0 -107 5 -120 11 -133 63 -163 74 -192 74 -42 0 -67 -26 -67 -69 0 -79 73 -136 244 -191 49 -16 295 -17 324 -1 11 6 30 11 41 11 26 0 115 39 238 105 46 25 140 106 287 249 107 104 219 187 306 226 25 11 53 25 62 30 10 6 28 10 42 10 13 0 43 7 66 15 29 10 82 15 167 15 125 0 217 -13 378 -52 44 -11 98 -24 120 -28 22 -4 60 -12 85 -18 114 -29 181 -42 208 -42 47 0 93 -20 90 -39 -2 -9 -26 -27 -53 -40 -28 -13 -57 -27 -65 -32 -36 -21 -94 -43 -220 -85 -130 -43 -185 -64 -222 -84 -10 -6 -22 -10 -28 -10 -9 0 -175 -80 -215 -104 -218 -130 -356 -272 -570 -586 -55 -81 -117 -168 -139 -193 -70 -84 -182 -146 -301 -168 -137 -25 -267 -58 -279 -70 -6 -5 -18 -9 -28 -9 -10 0 -26 -4 -36 -9 -9 -5 -57 -28 -105 -52 -49 -23 -94 -47 -100 -53 -7 -6 -30 -23 -52 -37 -143 -93 -319 -295 -484 -556 -116 -183 -127 -214 -96 -273 19 -36 59 -58 128 -71 29 -5 72 -13 97 -19 56 -11 258 -12 325 0 95 17 140 27 168 39 33 13 77 15 77 2 0 -4 -12 -39 -26 -77 -90 -239 -112 -328 -139 -549 -35 -284 5 -640 107 -942 41 -122 67 -148 147 -148 52 1 73 8 202 74 79 40 158 81 174 91 17 10 48 28 70 40 45 25 224 153 299 215 104 84 229 217 320 339 267 358 367 854 266 1326 -10 47 -30 136 -44 199 -35 152 -34 220 4 332 35 106 79 195 166 337 225 367 449 604 729 771 39 23 77 46 85 51 8 6 22 13 30 16 8 4 51 24 95 44 120 56 152 70 164 70 6 0 19 4 29 9 49 25 95 41 117 41 13 0 26 4 30 9 3 5 20 13 37 17 18 3 39 10 48 14 15 8 81 26 130 37 14 2 39 11 57 19 17 8 38 14 46 14 9 0 19 5 22 10 9 14 55 12 55 -3 0 -23 -186 -275 -246 -332 -74 -71 -82 -76 -224 -146 -127 -62 -189 -97 -247 -140 -29 -22 -55 -39 -57 -39 -23 0 -190 -170 -257 -261 -74 -99 -102 -149 -138 -244 -43 -110 -66 -201 -86 -330 -37 -235 0 -782 62 -927 18 -42 62 -68 116 -68 54 0 135 26 257 84 30 14 60 26 66 26 7 0 17 7 24 15 7 8 19 15 26 15 13 0 183 101 211 125 33 28 43 35 48 35 4 0 12 6 20 13 7 6 28 23 46 37 57 43 182 172 237 245 67 89 154 264 187 378 69 242 61 487 -30 882 -35 154 -34 186 14 267 66 113 185 261 312 387 110 109 242 207 394 291 33 18 74 41 90 51 17 10 48 27 70 39 22 12 66 40 99 61 32 21 62 39 66 39 5 0 10 3 12 8 4 9 79 67 98 75 8 4 25 14 38 23 21 16 22 16 22 -13 0 -16 -7 -79 -15 -140 -8 -61 -19 -178 -25 -259 -23 -323 -85 -504 -252 -729 -54 -73 -62 -99 -42 -140 20 -44 62 -59 107 -40 17 7 73 54 123 103 76 76 98 106 136 184 92 185 109 266 153 723 20 208 45 321 99 445 69 163 130 259 262 415 23 28 79 102 124 165 45 63 87 115 93 115 6 0 16 -36 24 -85 88 -603 230 -1183 403 -1655 104 -281 113 -324 113 -510 1 -238 -53 -434 -203 -740 -118 -241 -274 -488 -380 -600 -42 -45 -108 -105 -132 -120 -9 -5 -53 -35 -99 -66 -129 -87 -303 -168 -429 -200 -19 -4 -64 -16 -100 -25 -36 -9 -105 -19 -153 -21 -86 -5 -100 -2 -182 33 -38 16 -163 57 -235 77 -373 104 -715 -4 -1020 -320 -175 -180 -260 -296 -260 -350 0 -69 16 -85 160 -161 41 -22 96 -51 122 -65 26 -14 69 -33 95 -42 27 -10 55 -20 63 -23 40 -15 136 -34 235 -47 94 -12 123 -12 205 0 193 29 305 78 434 191 136 119 214 217 295 369 53 99 70 115 118 115 21 0 58 5 83 11 25 6 65 14 90 19 84 16 155 37 225 67 84 36 122 46 129 34 6 -10 -45 -92 -85 -136 -14 -16 -84 -106 -155 -200 -116 -154 -350 -453 -364 -465 -3 -3 -35 -41 -72 -85 -160 -194 -337 -331 -528 -408 -19 -8 -48 -20 -65 -27 -83 -34 -283 -90 -391 -109 -78 -14 -231 -14 -291 0 -42 10 -76 21 -148 49 -11 4 -72 32 -135 63 -197 94 -249 117 -260 117 -6 0 -18 4 -28 9 -36 19 -132 51 -229 77 -82 23 -277 22 -367 0 -73 -19 -87 -24 -183 -67 -179 -82 -415 -277 -623 -519 -46 -52 -94 -108 -109 -125 -14 -16 -65 -77 -113 -135 -116 -142 -168 -189 -349 -319 -84 -61 -158 -114 -164 -119 -5 -4 -39 -30 -75 -57 -36 -27 -79 -60 -95 -74 -17 -14 -51 -42 -75 -61 -121 -97 -358 -330 -391 -383 -30 -51 -23 -93 24 -144 25 -28 81 -30 117 -5 14 10 79 72 146 138 66 65 145 140 175 166 30 26 68 59 84 73 17 15 50 43 75 63 25 20 47 40 50 43 12 15 270 199 279 199 5 0 11 7 15 15 3 8 12 15 21 15 8 0 15 4 15 9 0 5 8 11 18 15 9 3 31 15 47 25 17 11 48 29 70 41 22 12 42 25 45 29 8 10 78 47 240 127 85 42 163 80 172 85 10 5 46 18 80 30 35 12 67 25 72 30 6 5 20 9 32 9 13 0 25 4 29 9 3 5 20 13 37 17 18 3 39 10 48 14 8 4 42 15 75 25 33 10 77 24 98 31 20 8 50 14 66 14 15 0 31 3 35 8 9 9 107 29 197 41 37 5 72 12 78 15 6 4 41 11 79 16 37 5 117 16 177 25 61 8 149 19 197 24 48 5 92 12 97 16 6 3 52 10 103 15 87 8 166 19 283 40 28 5 95 16 150 25 55 9 116 24 135 32 41 18 120 26 120 12 0 -18 -93 -98 -122 -104 -29 -7 -114 -50 -180 -91 -21 -13 -40 -24 -43 -24 -2 0 -37 -16 -77 -36 -40 -19 -95 -44 -123 -55 -27 -11 -59 -24 -70 -28 -55 -25 -223 -76 -345 -105 -36 -8 -130 -32 -210 -52 -80 -20 -165 -40 -190 -44 -51 -10 -112 -27 -220 -63 -411 -136 -713 -396 -835 -720 -30 -82 -31 -116 -4 -151 43 -55 103 -28 150 67 51 101 115 191 192 269 75 76 187 168 206 168 6 0 11 4 11 8 0 7 166 94 220 114 14 6 39 16 55 23 17 7 57 20 90 30 33 10 68 21 77 26 10 5 26 9 37 9 10 0 41 6 67 14 73 21 143 38 194 47 25 4 79 15 120 24 41 8 95 19 120 24 44 8 85 18 184 47 26 8 57 14 67 14 10 0 20 4 23 9 3 5 20 11 38 14 33 4 74 18 135 44 17 7 36 13 42 13 6 0 19 4 29 9 28 13 84 37 132 56 25 9 68 28 95 40 28 13 57 26 65 29 8 3 31 16 50 27 19 12 73 42 120 67 47 25 94 50 105 56 38 21 110 71 113 79 2 4 8 7 13 7 11 0 243 170 247 182 2 4 8 8 13 8 5 0 19 9 31 19 13 11 51 41 84 68 113 89 323 283 528 487 149 147 150 148 159 121 16 -46 -9 -307 -38 -406 -44 -154 -124 -307 -209 -404 -41 -46 -47 -95 -17 -134 15 -19 27 -23 70 -23 52 0 55 1 118 63 107 106 179 224 234 386 38 112 55 219 69 427 13 194 38 325 79 411 27 58 109 179 163 240 14 17 57 66 94 110 38 44 78 89 89 100 23 23 108 125 145 175 14 18 30 38 35 44 13 14 122 152 152 192 12 16 37 50 57 77 85 112 281 428 351 566 32 61 63 110 69 108 6 -2 30 -49 52 -105 53 -129 176 -359 334 -622 389 -648 514 -1044 455 -1438 -14 -95 -51 -242 -79 -312 -220 -133 -310 -230 -455 -86 -129 -232 -315 -341 -434 -177 -194 -577 -600 -648 -659 -66 -54 -217 -162 -226 -162 -6 0 -11 -4 -11 -8 0 -5 -10 -14 -22 -20 -13 -6 -54 -29 -93 -51 -95 -55 -298 -154 -530 -261 -333 -152 -552 -260 -665 -329 -19 -11 -42 -24 -50 -28 -20 -9 -194 -116 -200 -123 -7 -7 -41 -28 -60 -37 -24 -11 -212 -149 -251 -185 -20 -18 -58 -51 -84 -73 -27 -22 -54 -46 -61 -52 -7 -7 -16 -13 -21 -13 -4 0 -20 -10 -33 -22 -28 -25 -118 -88 -125 -88 -3 0 -33 -17 -67 -38 -58 -35 -131 -72 -215 -108 -18 -8 -48 -20 -65 -28 -18 -8 -58 -22 -88 -32 -30 -9 -59 -21 -64 -25 -6 -5 -20 -9 -32 -9 -13 0 -25 -4 -28 -9 -3 -4 -52 -23 -108 -41 -57 -18 -121 -38 -143 -45 -22 -7 -56 -18 -76 -24 -20 -6 -112 -16 -205 -21 -248 -15 -291 -22 -454 -68 -30 -8 -62 -18 -70 -22 -8 -4 -31 -14 -50 -22 -162 -72 -273 -147 -397 -269 -178 -175 -298 -404 -354 -672 -26 -122 -32 -415 -11 -536 30 -176 89 -390 124 -453 33 -58 96 -84 146 -59 91 44 156 78 170 86 48 29 107 71 110 78 2 4 10 7 17 7 7 0 15 4 17 8 2 4 32 30 68 57 36 27 70 54 76 60 6 5 41 37 79 70 65 58 205 216 272 307 69 95 163 288 213 438 11 36 39 150 61 254 48 231 59 270 99 344 35 64 67 103 125 148 55 43 219 120 300 140 11 3 29 10 40 15 73 33 166 51 164 32 -1 -13 -51 -95 -105 -202 -174 -219 -318 -429 -760 -570 -1199 -87 -273 -141 -492 -204 -825 -69 -369 -93 -531 -135 -915 -39 -352 -48 -428 -76 -650 -34 -264 -65 -485 -80 -575 -19 -116 -50 -280 -59 -320 -5 -22 -16 -76 -26 -120 -32 -153 -104 -425 -148 -555 -41 -121 -113 -267 -165 -337 -66 -87 -140 -123 -346 -168 -225 -48 -373 -97 -475 -155 -8 -5 -33 -19 -55 -31 -101 -54 -250 -177 -341 -280 -57 -65 -134 -186 -178 -281 -107 -230 -151 -442 -181 -871 -24 -352 -18 -444 34 -496 18 -18 33 -21 95 -21 46 0 76 4 78 11 2 6 37 15 78 19 87 19 173 10 198 26 16 38 106 29 227 53 134 27 240 65 393 142 45 23 82 45 82 49 0 4 4 8 10 8 9 0 88 51 116 75 7 6 27 21 46 34 57 42 193 185 237 250 56 82 125 223 157 319 58 173 78 423 54 652 -6 52 -11 154 -11 225 -1 179 1 186 160 604 132 344 187 533 279 951 49 223 105 543 168 960 8 58 19 132 24 165 5 33 18 125 30 205 44 316 67 440 80 440 24 0 161 -447 189 -621 14 -87 14 -325 0 -443 -15 -116 -9 -143 36 -161 85 -36 136 30 172 225 42 232 7 524 -106 870 -30 89 -69 238 -91 340 -11 52 -25 118 -31 145 -6 28 -14 109 -16 180 -5 108 -2 148 17 240 45 226 127 500 217 730 98 249 294 614 440 820 24 33 55 78 70 99 25 35 52 69 166 211 68 84 322 331 402 390 22 16 45 34 50 40 27 31 267 194 388 264 23 13 56 32 72 42 53 31 417 211 444 219 14 4 35 11 45 16 17 7 18 4 13 -25 -4 -18 -20 -47 -36 -64 -81 -88 -277 -417 -429 -723 -63 -126 -123 -266 -173 -408 -67 -185 -91 -238 -138 -296 -52 -64 -158 -177 -250 -264 -35 -34 -87 -83 -115 -110 -28 -27 -74 -63 -101 -80 -28 -17 -59 -37 -70 -44 -11 -6 -29 -16 -40 -21 -11 -5 -44 -25 -74 -45 -29 -20 -55 -36 -58 -36 -2 0 -10 -6 -18 -12 -7 -7 -28 -24 -47 -37 -70 -52 -187 -181 -240 -267 -120 -196 -168 -374 -168 -626 0 -274 36 -377 133 -378 48 0 133 35 242 100 28 16 59 34 70 39 11 5 29 17 40 28 11 10 40 34 65 53 99 76 174 167 248 302 77 138 111 322 113 602 1 94 4 181 7 194 14 47 182 197 196 174 2 -4 -7 -77 -21 -162 -30 -198 -40 -490 -23 -725 23 -328 23 -319 5 -381 -9 -33 -48 -124 -86 -203 -38 -79 -87 -191 -108 -250 -42 -112 -98 -339 -125 -506 -9 -55 -24 -140 -32 -190 -29 -178 -95 -354 -170 -456 -76 -104 -125 -128 -289 -144 -123 -11 -250 -47 -380 -106 -270 -124 -489 -520 -512 -925 -7 -115 4 -163 45 -195 25 -20 34 -21 137 -15 61 4 142 16 180 27 39 11 81 23 95 25 14 3 34 9 45 14 11 5 43 18 70 30 28 12 59 25 70 30 11 4 27 11 35 14 18 8 31 16 130 80 95 61 224 192 273 276 74 128 109 242 147 481 19 123 31 152 80 209 42 48 50 32 50 -105 0 -344 -75 -757 -159 -872 -15 -21 -61 -60 -102 -88 -41 -27 -76 -52 -79 -55 -3 -3 -30 -25 -60 -50 -128 -105 -239 -241 -299 -365 -96 -198 -129 -355 -117 -559 8 -133 25 -218 78 -390 61 -200 99 -256 174 -256 31 0 104 30 104 42 0 4 5 8 11 8 12 0 92 59 97 72 2 5 8 8 13 8 10 0 96 78 181 164 137 139 253 333 297 496 59 219 47 476 -35 760 -27 91 -22 169 18 330 56 221 66 268 78 360 18 139 22 144 60 75 30 -54 31 -99 7 -229 -32 -168 -18 -459 30 -616 32 -108 108 -255 170 -330 84 -104 317 -310 349 -310 4 0 15 -6 23 -13 9 -7 33 -19 55 -26 34 -12 42 -11 73 5 81 44 127 239 127 539 1 198 -6 247 -49 381 -67 207 -226 417 -425 565 -96 71 -126 105 -194 226 -79 140 -142 288 -160 376 -21 100 -21 363 -1 522 37 288 103 539 170 645 15 23 30 38 35 34 4 -5 18 -45 30 -89 42 -151 81 -280 116 -385 39 -115 169 -446 217 -550 16 -36 35 -81 42 -100 13 -33 50 -116 200 -440 297 -641 418 -934 490 -1184 46 -162 33 -236 -86 -489 -159 -336 -209 -510 -209 -733 0 -358 159 -641 618 -1101 62 -63 62 -63 120 -62 l57 0 47 57 c256 311 366 507 427 764 71 297 24 610 -131 873 -81 136 -184 251 -426 473 -102 94 -149 162 -172 253 -86 336 -239 763 -381 1067 -22 45 -39 84 -39 86 0 3 -13 34 -30 69 -30 65 -37 97 -22 97 5 0 35 -24 68 -53 32 -29 93 -79 134 -112 41 -32 94 -74 118 -93 110 -87 136 -130 207 -337 92 -270 195 -427 363 -549 34 -25 65 -46 69 -46 3 0 21 -11 39 -25 18 -14 37 -25 43 -25 5 0 22 -6 38 -14 189 -97 446 -130 748 -99 181 20 235 50 235 134 0 120 -133 435 -258 613 -63 89 -160 202 -199 232 -21 15 -40 30 -43 33 -3 4 -30 23 -60 43 -204 137 -416 193 -644 168 -61 -6 -127 -16 -147 -21 -106 -27 -167 0 -387 173 -72 57 -260 240 -327 318 -120 140 -253 354 -325 522 -121 282 -225 721 -255 1077 -6 68 -5 83 6 79 14 -5 62 -74 134 -194 42 -70 123 -180 178 -242 196 -219 360 -366 556 -499 58 -39 111 -75 117 -80 18 -14 48 -33 64 -40 8 -4 17 -9 20 -12 8 -9 100 -71 106 -71 3 0 31 -19 62 -42 157 -116 303 -277 382 -423 44 -82 58 -95 95 -95 96 0 84 139 -27 315 -68 108 -220 273 -328 355 -25 19 -47 37 -50 41 -3 4 -84 63 -180 133 -96 69 -179 130 -185 134 -5 4 -37 28 -70 52 -33 24 -67 50 -76 59 -9 9 -40 36 -70 61 -68 57 -191 180 -250 250 -99 118 -269 385 -319 500 -96 225 -143 567 -109 793 24 159 131 520 214 723 37 89 159 338 217 443 108 194 293 475 307 467 4 -3 4 -29 0 -58 -5 -29 -16 -174 -24 -323 -16 -297 -19 -314 -91 -476 -148 -332 -214 -595 -214 -851 0 -393 175 -734 524 -1023 27 -22 54 -45 60 -50 20 -19 166 -125 171 -125 3 0 16 -9 28 -21 12 -11 31 -25 42 -30 11 -5 34 -18 50 -28 73 -47 132 -17 203 101 246 410 350 816 297 1168 -19 124 -79 311 -141 433 -83 165 -253 371 -440 533 -31 27 -62 54 -68 59 -6 6 -31 26 -56 45 -131 101 -140 119 -140 267 0 112 26 333 55 463 25 115 97 319 139 394 21 37 70 106 110 154 74 89 353 373 461 471 33 30 87 79 120 110 34 31 117 108 185 171 207 191 386 366 447 436 80 92 130 150 144 163 9 9 52 61 95 116 229 290 411 609 504 885 26 76 33 86 48 68 11 -13 159 -354 188 -433 9 -22 45 -128 82 -235 l66 -195 0 -140 c0 -143 -9 -201 -55 -339 -52 -156 -172 -379 -239 -446 -11 -11 -41 -21 -77 -25 -32 -4 -80 -13 -108 -20 -27 -7 -85 -21 -128 -30 -42 -10 -80 -21 -83 -26 -3 -5 -16 -9 -29 -9 -13 0 -26 -4 -30 -9 -3 -5 -20 -13 -37 -17 -18 -3 -39 -10 -48 -15 -8 -4 -58 -29 -110 -54 -112 -54 -113 -55 -210 -124 -169 -120 -335 -322 -425 -516 -120 -257 -163 -503 -152 -863 8 -232 15 -268 59 -305 30 -26 38 -28 93 -23 97 8 317 63 445 111 19 8 69 26 110 41 72 26 200 83 210 94 6 7 35 24 85 51 22 11 42 24 45 28 3 3 23 18 45 33 63 41 104 76 199 173 216 219 324 463 357 807 12 127 2 323 -21 424 -20 84 -13 114 46 215 59 99 162 300 184 359 14 38 27 56 34 49 8 -7 63 -235 86 -349 11 -58 25 -127 30 -155 13 -64 45 -321 62 -495 7 -74 13 -245 13 -380 0 -284 -7 -326 -97 -535 -67 -157 -224 -400 -336 -520 -31 -34 -106 -95 -116 -95 -4 0 -33 -17 -64 -37 -31 -21 -61 -40 -67 -43 -25 -13 -152 -100 -174 -119 -13 -11 -27 -21 -30 -21 -3 0 -33 -25 -66 -56 -33 -31 -67 -61 -75 -68 -26 -19 -105 -118 -143 -179 -88 -138 -146 -281 -184 -455 -22 -101 -25 -430 -4 -479 15 -38 66 -73 104 -73 24 0 95 28 170 66 16 8 33 14 38 14 13 0 134 76 219 137 154 112 302 293 365 443 72 171 96 280 135 603 16 134 37 178 171 354 66 87 124 160 129 161 6 2 10 -11 10 -30 0 -42 -26 -340 -45 -528 -36 -346 -47 -632 -40 -1040 l6 -395 -25 -85 c-39 -133 -82 -231 -118 -267 -18 -17 -67 -50 -110 -71 -266 -138 -449 -324 -529 -536 -46 -124 -61 -208 -66 -376 -11 -329 36 -490 143 -490 80 0 335 153 453 271 123 123 218 265 267 399 50 139 57 195 59 445 1 164 5 247 13 262 7 12 12 31 12 42 0 19 17 38 26 28 11 -11 118 -329 132 -393 15 -69 15 -76 -12 -227 -25 -140 -28 -172 -24 -319 7 -225 39 -334 153 -506 73 -112 302 -332 344 -332 6 0 11 -4 11 -9 0 -5 8 -12 18 -15 20 -8 55 -27 73 -43 39 -32 115 -63 155 -63 84 0 120 67 169 315 36 183 41 277 21 413 -51 342 -205 559 -563 796 -40 26 -86 63 -102 83 -98 119 -194 578 -216 1033 -8 169 20 539 70 910 29 215 45 339 60 465 8 72 22 186 30 255 54 454 73 845 56 1172 -28 560 -93 1036 -200 1488 -16 69 -28 127 -26 129 7 7 60 -19 86 -42 13 -12 44 -38 69 -57 25 -19 47 -37 50 -40 3 -3 25 -23 50 -44 198 -172 402 -404 502 -571 154 -258 291 -624 341 -910 76 -429 98 -797 80 -1350 l-9 -270 -33 -80 c-17 -44 -52 -116 -78 -159 -47 -82 -53 -94 -116 -206 -47 -85 -114 -239 -137 -315 -49 -159 -55 -203 -54 -410 1 -181 3 -209 27 -297 71 -268 229 -548 442 -786 116 -130 269 -274 345 -325 37 -25 90 -22 122 8 73 68 253 386 331 585 81 205 110 348 111 540 1 222 -41 395 -151 614 -73 147 -177 292 -324 451 -115 125 -165 212 -181 313 -12 80 -3 425 18 662 7 91 14 200 14 242 0 117 12 115 92 -17 49 -83 193 -287 257 -365 68 -83 277 -289 351 -345 36 -27 70 -54 77 -60 35 -30 43 -35 47 -35 7 0 87 -70 146 -130 73 -72 113 -164 114 -265 1 -66 -2 -75 -43 -145 -155 -263 -201 -397 -201 -588 0 -208 65 -392 217 -620 143 -213 218 -209 360 18 109 175 164 329 194 538 29 206 -36 418 -200 647 -66 92 -102 167 -89 181 7 7 104 -43 137 -71 66 -54 263 -257 300 -307 130 -179 235 -413 291 -645 30 -126 58 -215 76 -238 11 -15 27 -20 63 -20 97 0 112 66 65 294 -79 392 -267 750 -527 1006 -80 78 -115 110 -217 195 -10 8 -28 22 -40 30 -13 8 -35 24 -49 36 -14 11 -43 31 -64 43 -21 13 -64 45 -95 72 -31 27 -61 49 -67 49 -17 1 -87 68 -81 78 6 10 34 5 106 -17 19 -6 45 -11 58 -11 13 0 42 -9 65 -21 53 -26 155 -59 184 -59 12 0 24 -4 27 -9 3 -5 21 -12 40 -15 84 -16 146 -70 245 -215 119 -172 289 -319 461 -398 178 -82 402 -113 684 -93 99 7 191 16 204 21 13 5 35 9 50 9 15 0 48 8 74 17 l48 17 0 128 c0 144 4 132 -95 263 -68 90 -227 255 -295 306 -25 19 -46 37 -48 41 -2 5 -8 8 -12 8 -5 0 -26 12 -47 26 -133 90 -351 152 -539 153 -153 1 -294 -15 -461 -55 -77 -18 -176 -18 -234 0 -24 7 -64 19 -89 26 -64 18 -139 41 -180 55 -19 7 -60 20 -90 30 -61 19 -78 25 -133 49 -21 9 -42 16 -47 16 -9 0 -109 43 -140 60 -8 5 -59 31 -113 59 -130 67 -257 152 -298 198 -114 130 -338 549 -514 959 -87 203 -105 253 -136 379 -84 347 -239 669 -466 972 -74 98 -276 307 -398 412 -55 47 -102 88 -105 91 -3 3 -41 34 -85 69 -44 34 -89 70 -100 79 -11 10 -40 33 -65 52 -25 19 -47 37 -50 40 -3 3 -43 39 -90 80 -132 117 -198 187 -283 297 -69 90 -95 145 -286 603 -95 228 -233 589 -307 805 -83 240 -195 570 -210 615 -16 53 -18 90 -4 90 5 0 67 -42 137 -93 206 -151 463 -303 643 -380 19 -8 62 -27 95 -42 79 -35 113 -50 150 -65 212 -85 382 -187 438 -262 88 -118 101 -207 45 -328 -45 -98 -83 -199 -104 -280 -25 -93 -25 -330 0 -420 45 -163 176 -371 326 -519 133 -131 153 -144 216 -144 41 0 59 5 72 19 38 41 86 120 128 209 160 342 176 634 48 885 -66 129 -131 209 -282 342 -104 92 -182 190 -182 231 0 17 5 18 38 13 20 -4 71 -18 112 -32 102 -33 157 -49 210 -63 25 -7 59 -17 75 -23 17 -5 46 -14 65 -18 19 -4 69 -19 110 -33 71 -23 91 -31 165 -62 17 -7 44 -18 60 -25 17 -6 43 -18 58 -26 16 -8 34 -14 41 -14 21 0 189 -92 291 -159 119 -78 166 -145 206 -296 22 -83 38 -318 25 -370 -8 -32 -42 -67 -126 -130 -93 -70 -227 -209 -283 -293 -63 -95 -110 -198 -136 -299 -31 -122 -30 -345 3 -475 44 -175 176 -451 248 -520 33 -32 45 -38 84 -38 63 0 112 37 293 220 150 151 267 328 320 484 33 95 45 231 31 357 -15 136 -50 248 -130 412 -43 91 -62 143 -70 193 -12 84 -13 384 -1 384 10 0 104 -107 144 -164 252 -361 332 -569 447 -1161 40 -205 50 -286 50 -384 0 -132 -17 -175 -140 -360 -146 -219 -189 -316 -229 -510 -26 -128 -26 -204 -2 -346 45 -261 151 -485 355 -754 41 -53 91 -116 112 -140 22 -24 46 -51 54 -61 36 -41 104 -80 138 -80 38 0 86 25 117 62 141 164 206 262 290 433 77 157 108 247 131 384 30 187 7 346 -80 543 -87 196 -132 262 -292 428 -118 122 -142 155 -164 229 -33 114 -65 501 -41 501 7 0 30 -17 53 -37 60 -55 59 -55 108 -95 114 -93 114 -94 130 -208 31 -233 61 -353 125 -510 15 -36 33 -72 40 -80 7 -8 21 -31 30 -50 26 -51 98 -137 169 -201 72 -66 174 -139 193 -139 7 0 13 -4 13 -8 0 -4 12 -13 28 -19 15 -6 38 -18 52 -27 14 -8 41 -21 60 -29 19 -8 49 -20 65 -27 17 -7 41 -16 55 -20 14 -5 50 -18 80 -29 30 -12 63 -21 73 -21 11 0 33 -6 50 -14 18 -8 48 -17 67 -20 19 -3 57 -10 83 -16 52 -10 73 -4 115 33 19 18 22 30 22 105 0 154 -67 430 -152 632 -101 238 -280 434 -498 544 -19 10 -61 31 -92 47 -31 16 -61 29 -67 29 -6 0 -27 7 -48 16 -80 35 -172 64 -201 64 -26 0 -108 27 -167 56 -67 32 -243 198 -321 304 -104 139 -123 180 -219 480 -93 288 -196 504 -330 694 -47 65 -85 125 -85 132 0 28 110 8 228 -42 18 -8 41 -14 51 -14 22 0 75 -26 89 -43 6 -7 18 -73 27 -147 36 -294 97 -480 221 -672 95 -148 229 -275 374 -357 73 -40 179 -90 205 -97 17 -4 35 -10 40 -14 6 -4 24 -10 40 -13 17 -3 48 -10 70 -16 112 -29 202 -36 480 -36 225 0 297 3 323 14 l33 14 -4 271 c-3 236 -6 282 -24 356 -31 121 -97 303 -142 385 -173 321 -483 540 -811 575 -41 5 -104 12 -138 16 -69 8 -250 -8 -367 -32 -38 -8 -113 -15 -165 -17 -90 -2 -131 5 -235 43 -11 4 -47 15 -80 24 -33 10 -76 22 -95 28 -19 7 -53 15 -75 19 -61 12 -158 35 -175 41 -8 2 -40 13 -70 22 -52 16 -151 62 -194 89 -29 18 -169 115 -182 126 -7 6 -27 18 -45 28 -19 11 -59 35 -89 54 -50 31 -110 62 -362 183 -43 20 -78 43 -78 50 0 14 60 31 161 45 52 8 94 19 164 43 17 6 45 13 63 15 18 3 35 9 38 14 3 5 31 9 63 9 52 0 73 -8 242 -92 102 -51 201 -99 220 -106 19 -7 48 -19 64 -26 45 -18 190 -62 272 -81 104 -25 375 -25 458 0 33 9 68 21 77 26 10 5 23 9 30 9 25 0 248 120 248 133 0 4 7 7 15 7 8 0 15 4 15 9 0 5 8 12 18 15 10 4 34 20 53 37 19 17 52 45 73 62 120 97 331 331 345 385 10 35 1 83 -21 109 -31 38 -344 275 -453 343 -71 45 -247 128 -325 153 -184 59 -240 69 -390 69 -132 0 -156 -4 -336 -51 -41 -11 -131 -57 -171 -87 -17 -13 -34 -24 -37 -24 -3 0 -18 -10 -33 -23 -163 -137 -285 -297 -373 -487 -77 -169 -86 -174 -370 -251 -96 -26 -372 -51 -475 -44 -157 11 -416 63 -477 96 -10 5 -24 9 -33 9 -8 0 -29 6 -47 14 -18 8 -49 21 -70 30 -20 9 -41 16 -47 16 -6 0 -19 4 -29 9 -29 14 -88 39 -187 81 -44 18 -334 162 -395 196 -36 20 -91 54 -124 75 -32 22 -61 39 -65 39 -3 0 -22 14 -41 30 -50 43 -51 44 -98 78 -87 63 -273 237 -379 355 -72 80 -240 307 -296 399 -38 62 -140 267 -187 373 -106 240 -213 608 -259 890 -25 157 -91 715 -91 775 0 35 16 22 74 -57 88 -121 96 -131 171 -222 38 -47 119 -135 180 -196 94 -94 150 -144 283 -256 12 -10 26 -19 30 -19 4 0 19 -10 32 -22 36 -32 119 -88 130 -88 6 0 10 -3 10 -7 0 -5 15 -16 33 -27 80 -45 146 -82 192 -105 106 -54 191 -133 265 -243 70 -105 74 -148 30 -325 -42 -171 -53 -262 -46 -378 10 -172 70 -329 184 -480 71 -95 284 -298 333 -317 9 -4 20 -11 24 -17 3 -6 31 -11 62 -11 76 0 103 30 143 159 60 195 73 274 74 446 1 182 -9 231 -77 373 -69 146 -137 226 -376 442 -50 45 -71 71 -71 88 0 22 2 23 43 17 23 -4 49 -13 57 -20 13 -11 66 -36 135 -64 41 -17 112 -52 160 -80 28 -16 67 -39 89 -51 121 -66 179 -112 322 -254 210 -211 315 -404 434 -803 33 -109 58 -143 107 -143 86 0 111 87 79 280 -34 201 -80 346 -169 530 -20 42 -98 182 -115 206 -103 150 -103 158 -12 162 84 5 237 -18 259 -38 9 -8 49 -62 89 -120 77 -115 218 -266 295 -318 26 -18 52 -32 56 -32 5 0 11 -3 13 -7 2 -5 21 -16 43 -27 22 -10 48 -22 58 -27 21 -11 82 -31 157 -52 137 -38 424 -38 578 0 74 19 122 64 122 114 0 52 -94 222 -209 379 -124 169 -255 273 -451 359 -82 36 -218 53 -365 47 -115 -4 -168 -12 -305 -46 -72 -18 -201 -31 -306 -31 -171 0 -308 27 -422 84 -100 50 -102 51 -102 59 0 5 -5 8 -11 8 -6 0 -28 13 -48 29 -65 51 -381 241 -401 241 -17 0 -120 65 -120 77 0 13 18 20 87 33 48 9 138 30 203 49 19 5 66 21 104 35 62 23 83 26 210 26 132 0 224 8 356 31 30 6 69 12 85 15 17 3 44 12 62 20 17 8 38 14 47 14 9 0 24 4 34 9 9 4 34 15 55 24 79 34 113 52 142 72 17 12 38 24 48 28 9 3 17 11 17 17 0 5 4 10 10 10 10 0 206 181 277 288 55 82 106 182 151 297 67 166 124 489 103 577 -20 83 -66 98 -310 98 -144 -1 -211 -5 -296 -21 -60 -11 -130 -24 -155 -28 -55 -9 -123 -29 -170 -48 -19 -8 -44 -18 -55 -22 -189 -77 -369 -223 -480 -391 -113 -172 -171 -352 -195 -605 -16 -171 -18 -180 -43 -202 -33 -30 -121 -57 -295 -92 -69 -14 -258 -14 -319 0 -185 42 -206 54 -383 205 -172 146 -299 299 -454 544 -126 200 -269 510 -345 750 -107 338 -167 661 -207 1115 -18 207 -15 593 5 795 6 58 18 175 27 260 8 85 22 202 29 260 8 58 17 132 20 165 3 33 10 85 15 115 5 30 19 125 30 210 11 85 25 182 30 215 5 33 17 110 25 170 9 61 22 144 30 185 7 41 21 122 30 180 78 472 228 898 428 1220 23 36 44 67 47 70 3 3 26 32 50 66 89 121 225 267 326 350 76 62 203 154 213 154 5 0 11 4 13 9 3 9 100 65 183 107 28 13 57 29 65 34 8 5 42 21 75 36 33 14 74 31 90 38 17 8 50 21 75 31 25 10 59 23 75 30 17 7 48 18 70 25 22 7 54 18 70 25 17 7 55 20 85 30 30 9 64 20 75 25 34 13 108 32 148 37 20 3 40 9 43 14 3 5 13 9 23 9 10 0 41 6 67 14 91 27 139 39 179 47 74 14 140 30 160 38 19 8 82 23 170 39 23 5 46 11 52 15 7 4 33 12 60 18 73 15 115 26 148 37 17 6 57 18 90 28 33 9 69 20 80 25 11 4 47 17 80 28 34 11 74 25 90 32 17 6 46 18 65 26 19 8 44 18 55 23 40 16 200 91 215 101 8 5 22 12 30 16 37 17 229 140 299 191 98 72 261 234 338 337 118 158 179 273 303 580 85 211 157 373 196 441 119 208 270 345 514 464 124 60 194 90 213 90 9 0 19 5 22 10 3 6 13 10 22 10 42 0 296 133 373 195 79 64 180 179 228 258 l52 89 0 369 c0 203 -2 369 -4 369 -21 0 -65 -26 -74 -43 -6 -12 -13 -72 -16 -132 -6 -118 -26 -239 -53 -320 -53 -164 -181 -338 -308 -420 -57 -37 -180 -95 -200 -95 -8 0 -16 -4 -20 -9 -3 -5 -20 -13 -37 -17 -18 -3 -39 -10 -48 -14 -8 -4 -60 -22 -115 -40 -249 -81 -404 -172 -572 -336 -59 -57 -111 -100 -115 -96 -12 12 -10 492 1 582 30 233 110 405 256 555 138 141 184 171 437 279 20 9 40 16 45 16 5 0 28 9 51 20 74 36 89 103 37 163 -22 25 -30 27 -95 27 -38 0 -70 -4 -70 -9 0 -5 -15 -12 -32 -16 -39 -8 -199 -60 -225 -73 -10 -5 -47 -24 -83 -42 -141 -70 -328 -227 -421 -355 -55 -76 -130 -225 -163 -329 -64 -194 -91 -389 -106 -746 -17 -394 -36 -541 -95 -728 -32 -102 -118 -270 -180 -352 -54 -72 -244 -263 -280 -282 -13 -7 -47 -28 -76 -46 l-52 -33 7 28 c4 15 22 53 40 83 67 109 121 271 151 449 18 108 18 94 -1 559 -11 255 39 435 160 570 18 20 38 47 45 59 30 59 -5 133 -63 133 -64 0 -222 -177 -281 -315 -59 -139 -73 -242 -80 -580 -8 -432 -47 -583 -211 -830 -94 -143 -289 -318 -432 -390 -120 -60 -316 -108 -742 -180 -52 -9 -129 -23 -170 -30 -41 -8 -88 -17 -105 -19 -84 -13 -275 -57 -440 -101 -33 -9 -76 -20 -95 -24 -19 -4 -51 -13 -70 -19 -19 -7 -91 -30 -160 -52 -69 -22 -134 -45 -145 -49 -11 -5 -42 -17 -70 -27 -60 -21 -166 -69 -297 -135 -123 -62 -135 -68 -178 -100 -19 -15 -57 -39 -85 -54 -27 -16 -52 -31 -55 -35 -14 -17 -81 -62 -87 -57 -9 10 57 129 96 171 58 63 214 219 246 246 53 44 145 110 154 110 5 0 11 4 13 9 4 10 66 46 163 96 39 20 77 40 85 44 22 13 77 37 185 80 11 5 40 16 65 26 25 9 53 21 62 26 10 5 23 9 29 9 6 0 25 6 42 13 41 17 86 33 167 59 36 11 69 24 74 29 6 5 19 9 29 9 17 0 172 49 222 70 11 5 29 11 40 13 23 6 149 52 185 68 14 6 39 17 55 24 41 16 268 128 280 138 6 4 55 39 110 78 104 74 214 166 251 209 34 39 58 67 74 87 68 81 178 289 215 405 65 204 84 354 95 748 9 318 20 420 64 561 35 113 147 280 232 344 21 16 49 39 62 50 13 11 40 29 60 40 20 12 62 36 92 55 30 19 72 44 92 54 45 23 64 68 48 111 -30 80 -113 85 -280 18 -115 -47 -253 -135 -339 -217 -79 -77 -167 -199 -224 -313 -83 -164 -134 -435 -162 -858 -7 -108 -25 -197 -38 -192 -5 1 -18 25 -28 52 -30 80 -75 161 -165 298 -140 212 -182 314 -191 462 -9 146 35 272 159 460 124 186 153 270 109 314 -28 28 -81 28 -112 -1 -13 -13 -42 -48 -63 -78 -22 -30 -70 -95 -106 -145 -193 -259 -248 -489 -181 -749 23 -86 97 -246 160 -341 104 -161 189 -346 211 -461 7 -33 10 -107 8 -165 -5 -149 -35 -206 -178 -329 -19 -16 -39 -30 -43 -30 -5 0 -23 -11 -41 -25 -40 -30 -275 -151 -319 -164 -18 -5 -40 -12 -49 -16 -23 -9 -24 17 -3 39 28 27 120 200 149 276 71 194 87 381 42 505 -30 82 -65 134 -133 194 -48 43 -81 60 -174 89 -69 23 -164 10 -258 -34 -51 -24 -122 -100 -160 -172 -81 -154 -38 -379 85 -449 50 -29 75 -29 108 2 35 33 34 78 -4 153 -44 87 -39 182 14 240 27 31 88 62 121 62 41 0 133 -48 160 -84 25 -33 55 -130 55 -179 0 -62 -34 -178 -84 -282 -107 -224 -283 -393 -536 -513 -74 -34 -336 -128 -425 -152 -46 -12 -178 -59 -197 -70 -10 -6 -22 -10 -28 -10 -5 0 -35 -12 -67 -26 -32 -14 -71 -31 -88 -38 -53 -23 -320 -158 -325 -165 -6 -7 -30 -22 -85 -52 -22 -11 -42 -24 -45 -28 -3 -3 -34 -26 -70 -50 -181 -124 -401 -343 -518 -518 -61 -90 -66 -90 -59 3 16 197 108 446 237 644 61 93 204 245 300 320 24 19 52 43 62 53 10 9 21 17 24 17 3 0 12 6 19 13 25 22 39 32 95 67 30 19 60 39 67 45 7 5 19 16 27 23 8 6 18 12 21 12 7 0 322 230 370 270 68 57 234 230 283 295 68 91 186 328 212 428 35 133 57 266 74 437 42 415 78 560 182 720 96 149 228 250 399 305 109 35 144 44 190 50 28 3 67 11 87 17 71 21 70 96 -1 147 -25 18 -44 21 -139 21 -61 0 -113 -4 -116 -9 -4 -5 -25 -12 -49 -16 -97 -15 -246 -73 -346 -134 -82 -49 -208 -167 -263 -246 -143 -205 -216 -420 -278 -830 -35 -225 -71 -343 -148 -480 -70 -125 -179 -248 -302 -340 -36 -27 -67 -52 -70 -56 -7 -9 -192 -119 -200 -119 -16 0 -17 29 -3 155 33 305 -27 519 -240 862 -94 150 -117 195 -155 304 -47 132 -58 226 -39 325 20 105 48 164 114 234 88 95 191 135 298 115 95 -18 167 -80 206 -177 23 -56 24 -159 3 -200 -28 -55 -50 -67 -176 -99 -55 -13 -79 -36 -80 -76 -2 -68 47 -103 142 -103 34 0 76 6 93 14 18 8 39 17 47 20 65 26 132 92 165 162 64 134 59 268 -15 420 -54 111 -205 227 -323 249 -20 4 -40 11 -43 16 -9 15 -139 10 -170 -6 -16 -8 -41 -15 -56 -15 -15 0 -30 -4 -33 -10 -3 -5 -14 -10 -23 -10 -34 0 -143 -66 -199 -120 -59 -57 -129 -156 -158 -225 -50 -118 -59 -166 -59 -310 0 -125 3 -149 28 -230 35 -113 88 -237 144 -340 61 -109 97 -175 131 -237 155 -286 147 -593 -22 -843 -51 -75 -79 -107 -192 -220 -92 -91 -105 -102 -185 -165 -58 -45 -107 -89 -189 -170 -120 -119 -166 -178 -258 -331 -134 -222 -236 -499 -285 -773 l-12 -68 -19 23 c-11 13 -33 51 -49 84 -41 81 -130 217 -187 285 -65 78 -206 215 -276 268 -33 25 -62 49 -65 53 -3 3 -10 8 -16 10 -6 2 -24 14 -40 27 -45 35 -187 128 -251 163 -32 18 -74 42 -93 53 -19 12 -64 36 -100 55 -222 113 -284 159 -348 259 -63 99 -97 185 -116 297 -41 235 4 463 134 682 64 107 163 235 231 298 47 44 145 118 169 129 8 3 31 16 50 28 49 29 147 78 158 78 5 0 23 7 38 15 16 8 38 15 50 15 11 0 24 3 28 8 12 11 142 33 237 39 122 7 271 -26 375 -83 216 -118 334 -321 334 -573 0 -118 -16 -193 -63 -290 -36 -76 -123 -168 -183 -195 -21 -9 -47 -21 -56 -26 -24 -14 -171 -12 -205 1 -120 48 -179 97 -219 182 -45 97 -22 202 63 291 34 35 38 46 38 90 0 69 -26 96 -93 96 -131 0 -262 -193 -262 -385 0 -197 117 -383 298 -474 90 -46 102 -50 199 -66 76 -13 105 -14 160 -4 75 13 165 40 203 61 41 22 115 72 118 81 2 4 8 7 13 7 30 0 136 148 189 264 60 132 75 207 75 386 -1 145 -3 162 -33 263 -67 224 -167 363 -377 525 -20 16 -171 85 -200 93 -16 4 -43 12 -60 17 -75 25 -139 35 -265 39 -162 6 -314 -14 -439 -56 -38 -13 -67 -19 -73 -13 -5 5 2 59 18 133 23 108 26 139 21 244 -4 99 -10 136 -36 215 -38 111 -101 218 -168 283 -118 113 -179 134 -227 76 -38 -45 -35 -85 12 -136 156 -170 202 -273 202 -451 0 -119 -20 -203 -80 -327 -65 -135 -150 -252 -279 -382 -128 -130 -170 -180 -245 -296 -128 -196 -213 -441 -217 -627 -1 -30 -4 -68 -8 -85 l-7 -30 -28 54 c-35 68 -61 149 -81 252 -17 93 -21 438 -5 554 5 39 12 149 16 245 10 279 -29 498 -117 658 -36 65 -99 164 -108 172 -3 3 -32 35 -63 71 -61 70 -185 173 -258 214 -75 42 -190 95 -205 95 -7 0 -17 5 -20 10 -3 6 -21 10 -39 10 -19 0 -39 7 -46 15 -7 9 -29 15 -54 15 -34 0 -49 -6 -74 -31 -17 -17 -34 -40 -38 -51 -8 -27 3 -79 24 -103 17 -21 27 -27 145 -86 37 -18 67 -37 67 -41 0 -4 5 -8 11 -8 14 0 135 -97 171 -139 93 -104 163 -234 204 -381 25 -86 25 -342 0 -480 -59 -333 -76 -452 -76 -542 0 -93 -9 -178 -19 -178 -11 0 -64 52 -97 95 -81 103 -149 273 -199 498 -72 320 -154 473 -325 612 -77 62 -271 165 -312 165 -8 0 -18 4 -24 8 -11 9 -169 57 -284 86 -288 72 -421 173 -504 381 -20 50 -48 100 -62 113 -34 30 -75 28 -105 -4 -20 -21 -24 -35 -23 -82 3 -109 53 -225 144 -336 25 -29 59 -63 76 -75 16 -11 39 -29 50 -39 25 -23 121 -82 134 -82 6 0 18 -4 28 -10 29 -16 84 -37 140 -54 28 -9 73 -23 100 -31 26 -8 57 -15 69 -15 12 0 24 -4 27 -9 3 -5 20 -11 38 -14 39 -6 95 -26 169 -62 127 -60 215 -132 282 -230 71 -104 105 -206 146 -440 34 -189 75 -313 147 -443 60 -107 237 -302 274 -302 5 0 47 -37 94 -82 77 -76 89 -94 156 -227 90 -180 136 -255 221 -357 111 -133 252 -256 499 -434 129 -94 240 -174 246 -179 6 -5 29 -20 51 -34 22 -14 46 -31 54 -39 8 -7 46 -39 84 -70 75 -60 210 -197 261 -263 88 -116 171 -269 224 -415 46 -124 50 -141 50 -185 l-1 -40 -25 30 c-14 17 -50 62 -79 102 -51 67 -219 243 -310 323 -74 66 -253 193 -340 241 -16 9 -55 30 -85 47 -84 47 -301 152 -315 152 -4 0 -21 6 -38 14 -18 7 -52 21 -77 31 -25 10 -59 24 -77 31 -17 8 -37 14 -45 14 -8 0 -18 3 -22 7 -4 4 -28 13 -54 21 -26 7 -63 17 -82 23 -43 13 -141 37 -198 49 -24 5 -48 12 -53 15 -5 4 -30 10 -57 15 -26 5 -81 16 -122 25 -41 9 -99 20 -128 25 -60 10 -102 19 -257 56 -127 31 -215 63 -376 138 -31 14 -59 26 -63 26 -12 0 -165 98 -229 147 -118 89 -224 215 -331 391 -140 232 -194 388 -203 590 -7 147 5 216 57 327 43 91 91 147 176 201 58 38 60 38 159 39 111 0 147 -13 219 -76 80 -72 135 -210 122 -312 -12 -105 -78 -196 -166 -228 -69 -26 -96 -61 -82 -111 11 -42 41 -57 115 -58 58 0 77 5 125 31 67 37 135 106 167 169 82 163 68 395 -34 546 -62 92 -148 171 -226 209 -136 65 -266 80 -390 44 -38 -11 -80 -23 -92 -26 -12 -3 -28 -11 -34 -19 -6 -8 -16 -14 -21 -14 -16 0 -80 -52 -136 -110 -141 -146 -216 -361 -215 -615 0 -149 17 -248 69 -406 51 -155 193 -422 249 -469 8 -7 25 -33 37 -59 12 -25 24 -49 26 -53 22 -43 -274 125 -371 211 -178 158 -294 330 -362 537 -64 195 -72 334 -51 884 9 242 5 317 -30 495 -31 160 -96 327 -178 459 -77 124 -229 272 -351 343 -41 24 -190 96 -215 104 -14 4 -50 17 -80 28 -30 12 -66 21 -80 21 -14 0 -38 7 -54 15 -15 8 -49 15 -75 15 -38 0 -51 -5 -73 -30z"/>
    <path d="M7271 15053 c-24 -30 -27 -38 -41 -148 -45 -342 -204 -644 -425 -806 -107 -78 -243 -124 -365 -123 -87 0 -142 13 -250 61 -69 31 -106 46 -150 64 -22 9 -73 14 -140 14 -96 -1 -109 -3 -155 -29 -101 -57 -154 -119 -180 -210 -48 -166 37 -348 197 -420 103 -46 125 -50 161 -29 42 25 59 59 53 108 -5 43 -39 78 -85 90 -36 9 -88 51 -106 85 -32 61 -5 147 55 177 33 17 114 16 153 -1 18 -7 50 -20 72 -29 22 -8 60 -23 85 -32 78 -30 84 -32 155 -49 114 -27 269 -17 380 24 92 34 206 94 213 112 2 4 9 8 15 8 11 0 32 17 112 88 94 84 222 274 278 412 61 152 88 268 94 411 7 149 1 190 -33 224 -33 33 -67 32 -93 -2z"/>
    <path d="M8265 12784 c-75 -39 -131 -83 -265 -215 -58 -56 -183 -218 -223 -286 -42 -73 -91 -215 -112 -326 -37 -192 -4 -362 119 -624 31 -66 56 -131 56 -145 0 -26 -29 -57 -120 -127 -134 -104 -232 -235 -266 -357 -20 -73 -14 -105 26 -145 36 -36 80 -37 135 -4 90 55 107 60 200 59 95 0 145 -13 226 -57 93 -51 150 -44 190 26 22 38 24 53 24 162 0 131 -10 170 -70 298 -18 38 -31 76 -28 86 2 10 57 70 121 132 184 180 270 309 331 499 84 262 54 537 -91 826 -69 140 -105 188 -155 209 -44 19 -39 19 -98 -11z"/>
    <path d="M8203 12262 c-37 -4 -73 -42 -73 -77 0 -21 31 -71 55 -87 43 -31 125 24 125 84 -1 57 -40 87 -107 80z"/>
    <path d="M3985 12508 c-80 -20 -149 -46 -230 -86 -54 -27 -159 -109 -216 -169 -84 -87 -104 -136 -77 -186 20 -39 49 -57 91 -57 36 0 47 7 124 83 113 110 111 107 119 107 4 0 15 6 23 14 25 22 112 66 131 66 10 0 34 7 53 15 22 9 68 15 116 15 71 0 83 3 110 26 56 47 50 126 -11 164 -26 16 -49 20 -113 19 -44 -1 -98 -6 -120 -11z"/>
    <path d="M800 12109 c-138 -86 -257 -250 -306 -419 -28 -98 -25 -280 5 -385 31 -106 79 -210 132 -281 61 -84 175 -196 239 -235 31 -19 64 -40 75 -46 20 -13 63 -33 123 -59 18 -8 40 -14 48 -14 9 0 37 -7 63 -15 90 -28 184 -37 331 -32 232 9 321 31 515 130 90 45 167 92 202 122 6 5 26 21 44 35 73 56 181 175 210 232 20 40 24 84 10 107 -6 9 -28 15 -58 15 -46 1 -53 -3 -95 -44 -25 -25 -60 -58 -79 -74 -38 -31 -237 -164 -284 -189 -263 -138 -564 -166 -815 -76 -78 28 -216 114 -267 166 -174 180 -239 403 -178 610 17 57 32 74 41 46 32 -98 123 -220 191 -257 129 -69 206 -96 276 -96 82 0 131 58 103 123 -16 40 -28 49 -96 71 -130 43 -202 93 -243 170 -28 54 -30 171 -4 235 26 64 27 133 1 168 -17 23 -30 28 -70 31 -42 2 -58 -3 -114 -39z"/>
    <path d="M7258 11907 c-21 -20 -27 -36 -32 -88 -23 -266 -30 -324 -47 -404 -33 -147 -76 -267 -131 -359 -28 -47 -59 -94 -67 -104 -47 -51 -110 -130 -120 -149 -15 -29 -5 -65 24 -93 20 -19 32 -22 69 -18 24 3 50 10 57 17 125 103 204 203 268 335 85 175 127 349 137 556 7 161 -5 260 -34 300 -27 36 -89 40 -124 7z"/>
    <path d="M5860 10570 c-116 -18 -177 -33 -260 -64 -25 -10 -53 -20 -63 -23 -30 -9 -162 -79 -221 -117 -70 -45 -178 -138 -303 -262 -59 -58 -123 -112 -155 -128 -69 -37 -159 -45 -260 -23 -193 42 -234 47 -360 47 -130 0 -181 -8 -303 -47 -78 -25 -182 -80 -214 -114 -53 -55 -43 -138 22 -171 41 -21 125 -48 148 -48 10 0 35 -7 56 -16 21 -9 47 -20 58 -24 11 -4 50 -22 87 -39 37 -17 70 -31 73 -31 12 0 142 -86 163 -108 32 -33 29 -107 -10 -255 -29 -109 -32 -137 -33 -262 0 -159 15 -222 67 -281 28 -31 34 -34 89 -34 37 0 71 6 92 18 149 80 248 213 373 503 83 194 119 255 172 296 37 28 38 28 152 23 188 -8 510 -3 585 10 69 11 169 35 272 64 48 13 119 42 166 67 62 34 96 53 122 70 17 10 37 22 45 25 66 29 242 186 343 306 61 73 154 220 162 258 11 50 -28 101 -115 149 -103 56 -229 119 -250 123 -14 4 -50 15 -80 27 -67 25 -114 36 -250 61 -127 24 -218 24 -370 0z"/>
    <path d="M1175 10263 c-11 -3 -24 -9 -29 -14 -6 -5 -18 -9 -28 -9 -9 0 -32 -6 -50 -14 -18 -8 -49 -21 -68 -29 -80 -34 -167 -78 -190 -97 -14 -11 -28 -20 -32 -20 -13 0 -168 -109 -209 -146 -271 -248 -425 -459 -533 -728 l-36 -89 0 -228 c0 -139 4 -229 10 -229 23 0 63 26 75 50 7 14 30 84 50 155 104 370 318 695 615 935 30 25 56 48 58 53 2 4 8 7 13 7 6 0 33 17 62 38 62 44 78 54 137 84 25 13 47 26 48 31 2 4 11 7 21 7 9 0 26 7 37 15 10 8 24 15 31 15 18 0 146 60 166 78 27 24 17 113 -16 134 -13 8 -99 9 -132 1z"/>
    <path d="M2402 9863 c-13 -2 -51 -31 -86 -64 -170 -159 -276 -373 -310 -629 -13 -96 -25 -110 -103 -110 -23 0 -77 -9 -120 -19 -409 -101 -648 -284 -842 -644 -48 -90 -110 -259 -138 -382 -24 -100 -26 -129 -26 -315 0 -147 5 -232 17 -300 47 -268 80 -354 139 -365 66 -12 164 20 367 119 104 51 148 76 208 119 29 20 55 37 58 37 3 0 11 6 19 13 7 6 28 23 46 37 152 114 315 312 396 480 114 237 154 407 178 765 9 132 21 244 26 249 5 6 43 5 97 -2 129 -17 456 -15 507 3 22 8 46 15 53 15 18 0 114 63 141 91 29 31 42 83 30 117 -12 34 -56 62 -97 62 -17 0 -34 5 -37 10 -3 6 -13 10 -22 10 -24 0 -112 58 -159 105 -97 95 -168 249 -206 446 -15 79 -26 113 -41 127 -24 23 -60 32 -95 25z"/>
    <path d="M3800 8771 c-14 -5 -50 -14 -80 -21 -147 -34 -329 -108 -465 -190"/>
  </g>
</svg>
